<svg viewBox="0 0 605.466 508.266"><path fill="#3f3d56" d="M706.291 506.823h-842.294a1.19 1.19 0 0 1 0-2.382h842.294a1.19 1.19 0 0 1 0 2.382z"/><g transform="translate(-137.194 -88.439)"><circle cx="411.393" cy="390" r="24" fill="#f2f2f2"/><circle cx="583.393" cy="440" r="24" fill="#f2f2f2"/><circle cx="628.449" cy="242.996" r="30" fill="#2f2e41"/><path fill="#a0616a" d="M573.012 582.129 560.753 582.129 554.92 534.841 573.015 534.841z"/><path fill="#2f2e41" d="M551.996 578.626h23.643v14.886h-38.53a14.887 14.887 0 0 1 14.887-14.886z"/><path fill="#a0616a" d="M668.012 582.129 655.753 582.129 649.92 534.841 668.015 534.841z"/><path fill="#2f2e41" d="M646.996 578.626h23.643v14.886h-38.53a14.887 14.887 0 0 1 14.887-14.886z"/><circle cx="623.89" cy="248.61" r="24.561" fill="#a0616a"/><path fill="#2f2e41" d="m816.191 504.775 10.99-25.25a31.383 31.383 0 0 0-6.95-35.6 31.873 31.873 0 0 0-3.07-2.67 30.935 30.935 0 0 0-18.99-6.57 32.179 32.179 0 0 0-13.4 2.98c-.36.16-.71.33-1.07.5-.69.33-1.37.69-2.03 1.06a31.678 31.678 0 0 0-15.7 23.88l-4.85 40.64c-1.22 3.19-44.74 118.39-29.52 206.34a4.467 4.467 0 0 0 3.82 3.67l15.43 2.1a4.497 4.497 0 0 0 5.01-3.53l25.89-123.41a3.503 3.503 0 0 1 6.8-.23l36.58 129.78a4.471 4.471 0 0 0 4.31 3.28 5.122 5.122 0 0 0 .87-.08l18.85-3.63a4.471 4.471 0 0 0 3.63-4.81c-2.77-30.89-17.49-185.62-36.6-208.45z" transform="translate(-177.662 -152.37)"/><path fill="#a0616a" d="M706.102 421.42a10.056 10.056 0 0 0 10.594 11.202l13.729 32.993 10.385-15.394-14.63-28.97a10.11 10.11 0 0 0-20.078.168zM800.19 537.996a10.056 10.056 0 0 0 8.427-12.914l28.885-21.038-17.39-6.512-24.764 20.977a10.11 10.11 0 0 0 4.842 19.487z" transform="translate(-177.662 -152.37)"/><path fill="#2f2e41" d="M753.102 487.61a17.057 17.057 0 0 1-3.298-.325 16.305 16.305 0 0 1-11.948-9.616l-19.234-23.453a4.5 4.5 0 0 1 1.11-6.681l13.685-8.47a4.5 4.5 0 0 1 6.215 1.49l13.557 22.334 25.961-19.187a9.721 9.721 0 0 1 11.31 15.562L764.548 482.9a16.253 16.253 0 0 1-11.446 4.71zM823.252 522.883l-.106-.001a4.508 4.508 0 0 1-3.31-1.57l-12.167-14.194a4.5 4.5 0 0 1 .92-6.673l22.782-15.187-20.638-24.813a9.721 9.721 0 0 1 14.887-12.182l25.083 24.512a16.525 16.525 0 0 1-3.675 26.94l-20.501 21.755a4.507 4.507 0 0 1-3.275 1.413z" transform="translate(-177.662 -152.37)"/><path fill="#e6e6e6" d="M795.307 470.584a4.632 4.632 0 0 1-.584-.038 4.461 4.461 0 0 1-3.71-3.068l-9.143-28.03a3.083 3.083 0 0 1 1.594-3.724l.297-.14c.269-.128.535-.255.807-.376a32.574 32.574 0 0 1 13.603-3.023 31.327 31.327 0 0 1 17.162 5.157 3.13 3.13 0 0 1 .901 4.294l-17.15 26.868a4.455 4.455 0 0 1-3.777 2.08z" transform="translate(-177.662 -152.37)"/><circle cx="652.101" cy="219.786" r="9.817" fill="#2f2e41"/><path fill="#2f2e41" d="M796.111 361.365a26 26 0 0 0-26 26v11h13.53l6.47-11 1.942 11h41.058l-11-11a26 26 0 0 0-26-26zM834.809 365.431a15.15 15.15 0 0 1 16.48-10.395c6.257 1.045 11.203 6.074 14.15 11.69 2.947 5.617 4.308 11.903 6.29 17.929 1.98 6.025 4.79 12.083 9.792 15.984 5.002 3.9 12.678 4.958 17.59.946a20.118 20.118 0 0 1-37.477 7.18c-2.592-4.61-3.261-10.016-4.03-15.25-.768-5.234-1.767-10.65-4.862-14.94-3.095-4.291-8.888-7.093-13.804-5.14z" transform="translate(-177.662 -152.37)"/><g transform="translate(-6.803 2.268)"><circle cx="431.393" cy="548" r="46" fill="#6c63ff"/><path fill="#3f3d56" d="M598.92 735.15a45.994 45.994 0 0 1-17.07-71.49 45.997 45.997 0 1 0 62.569 66.464 45.97 45.97 0 0 1-45.499 5.025z" transform="translate(-177.662 -152.37)"/></g><g><path fill="#ccc" d="m281.7 523.119-24.336-19.278a17.163 17.163 0 0 1-7.824-27.135l22.098-28.96a10.096 10.096 0 0 1 17.13 10.285l-17.485 28.6 25.694 12.187a4.674 4.674 0 0 1 1.948 6.72l-10.371 16.413a4.682 4.682 0 0 1-3.167 2.111l-.077.013a4.696 4.696 0 0 1-3.61-.956z" transform="translate(119.052) translate(-177.662 -152.37)"/><g transform="translate(119.052)"><path fill="#ffb8b8" d="M138.8 582.584 144.633 535.296 126.538 535.297 126.541 582.585z"/><path fill="#2f2e41" d="M301.576 731.45h38.53v14.888h-23.643a14.887 14.887 0 0 1-14.887-14.887z" transform="rotate(179.997 232.012 662.707)"/><path fill="#ffb8b8" d="M94.8 582.584 100.633 535.296 82.538 535.297 82.541 582.585z"/><path fill="#2f2e41" d="M257.576 731.45h38.53v14.888h-23.643a14.887 14.887 0 0 1-14.887-14.887z" transform="rotate(179.997 188.012 662.707)"/><path fill="#2f2e41" d="m270.917 720.41-11.975-.63a4.673 4.673 0 0 1-4.419-4.966l14.313-158.466 65.91 17.785 6.351-1.732-19.858 140.285a4.696 4.696 0 0 1-4.358 3.944l-12.91.602a4.674 4.674 0 0 1-4.93-4.796l2.338-84.196a1.558 1.558 0 0 0-3.083-.36l-22.557 88.812a4.646 4.646 0 0 1-4.57 3.726c-.083 0-.167-.002-.252-.007z" transform="translate(-177.662 -152.37)"/><circle cx="128.742" cy="249.759" r="24.561" fill="#ffb8b8"/><path fill="#ccc" d="m265.512 474.287 2.7 58.267.977 21.199a4.642 4.642 0 0 0 3.074 4.175l63.336 22.944a4.477 4.477 0 0 0 1.6.28 4.644 4.644 0 0 0 4.663-4.788l-2.596-104.767a36.93 36.93 0 0 0-30.744-35.677 99.596 99.596 0 0 0-1.86-.27 36.25 36.25 0 0 0-29.164 9.44 37.236 37.236 0 0 0-11.986 29.197z" transform="translate(-177.662 -152.37)"/><path fill="#ffb8b8" d="M365.855 569.245a10.064 10.064 0 0 1-5.37-15.226l-21.477-28.56 18.534-1.148 17.554 27.297a10.111 10.111 0 0 1-9.241 17.637z" transform="translate(-177.662 -152.37)"/><path fill="#ccc" d="M350.753 548.85a4.644 4.644 0 0 1-2.54-2.518l-32.359-77.095a12.463 12.463 0 1 1 22.984-9.647l32.359 77.096a4.679 4.679 0 0 1-2.5 6.118l-14.366 6.029a4.642 4.642 0 0 1-3.578.017z" transform="translate(-177.662 -152.37)"/><path fill="#3f3d56" d="m298.508 546.13 31.079-59.508a4.878 4.878 0 0 1 6.575-2.063l45.111 23.56a4.878 4.878 0 0 1 2.064 6.575l-31.08 59.508a4.878 4.878 0 0 1-6.574 2.064l-45.112-23.56a4.878 4.878 0 0 1-2.063-6.575z" transform="translate(-177.662 -152.37)"/><path fill="#ffb8b8" d="M319.35 518.943a10.064 10.064 0 0 0-15.516-4.46l-29.779-19.755-.05 18.57 28.285 15.912a10.111 10.111 0 0 0 17.06-10.267z" transform="translate(-177.662 -152.37)"/><path fill="#2f2e41" d="M287.845 418.574a2.135 2.135 0 0 1 1.857-2.819 4.93 4.93 0 0 1 3.476 1.715 13.833 13.833 0 0 0 3.071 2.637c1.188.6 2.8.514 3.477-.628.636-1.072.2-2.508-.185-3.753a36.907 36.907 0 0 1-1.63-9.77c-.11-3.7.411-7.562 2.46-10.448 2.644-3.725 7.371-5.14 11.845-5.037 4.474.103 8.876 1.484 13.307 2.357 1.53.301 3.329.456 4.352-.73 1.088-1.261.688-3.302.226-5.004-1.201-4.417-2.475-8.985-5.266-12.552a18.898 18.898 0 0 0-12.06-6.79 28.938 28.938 0 0 0-13.463 1.528 36.096 36.096 0 0 0-17.683 12.319 29.236 29.236 0 0 0-5.578 21.6 26.667 26.667 0 0 0 9.886 16.854z" transform="translate(-177.662 -152.37)"/></g></g><path fill="none" stroke-dasharray="none" stroke-width=".905" d="M137.194 88.439H742.66V596.396H137.194z"/><g><path fill="#6c63ff" d="M604.128 220.373c-71.892.507-130.756 58.93-131.778 130.816-.009.664-.014 5.33-.013 11.434a33.748 33.748 0 0 0 33.744 33.746 33.769 33.769 0 0 0 33.761-33.798l-.006-7.202a64 64 0 1 1 98.52 53.88l.012.014s-48.028 30.92-62.67 73.335l.012.003a94.004 94.004 0 0 0-3.874 26.768c0 3.726.22 36.322.643 62.778a34.786 34.786 0 0 0 34.79 34.222 34.796 34.796 0 0 0 34.794-35.01c-.147-24.23-.227-52.442-.227-54.49 0-26.045 25.125-51.995 45.764-68.917 23.766-19.487 40.868-46.043 47.737-76a86.762 86.762 0 0 0 2.5-18.833 132.75 132.75 0 0 0-133.71-132.746z" transform="translate(6.803 29.48) translate(-17.007 -4.535) translate(-177.662 -152.37)"/><path fill="#3f3d56" d="M515.609 380.408a33.748 33.748 0 0 1-33.744-33.746c0-6.104.004-10.771.013-11.435a131.507 131.507 0 0 1 15.359-59.908 131.803 131.803 0 0 0-25.36 75.908c-.008.664-.013 5.33-.012 11.435a33.748 33.748 0 0 0 33.744 33.746 33.773 33.773 0 0 0 32.488-24.591 33.622 33.622 0 0 1-22.488 8.59zM606.415 291.478a64.004 64.004 0 0 1 55.66 89.413 63.997 63.997 0 1 0-107.427-66.985 63.87 63.87 0 0 1 51.767-22.428zM616.797 590.408a34.787 34.787 0 0 1-34.79-34.223c-.424-26.456-.643-59.052-.643-62.777a94.004 94.004 0 0 1 3.874-26.768l-.012-.003a95.069 95.069 0 0 1 5.494-12.701 110.047 110.047 0 0 0-15.494 28.7l.012.004a94.004 94.004 0 0 0-3.874 26.768c0 3.725.22 36.32.643 62.777a34.787 34.787 0 0 0 34.79 34.223 34.803 34.803 0 0 0 33.402-25.049 34.66 34.66 0 0 1-23.402 9.049z" transform="translate(6.803 29.48) translate(-17.007 -4.535) translate(-177.662 -152.37)"/></g></g></svg>