<svg
   width="605.46606"
   height="508.26608"
   viewBox="0 0 605.46608 508.2661">
  <path
     d="m 706.29109,506.82271 h -842.294 a 1.19069,1.19069 0 0 1 0,-2.38137 h 842.294 a 1.190685,1.190685 0 0 1 0,2.38137 z"
     fill="#3f3d56"
     id="path122" />
  <g
     id="g1477"
     transform="translate(-137.1936,-88.438848)">
    <circle
       cx="411.39282"
       cy="390"
       fill="#f2f2f2"
       id="circle114"
       r="24" />
    <g
       id="g952">
      <circle
         cx="583.39282"
         cy="440"
         fill="#f2f2f2"
         id="circle116"
         r="24" />
      <circle
         cx="628.44885"
         cy="242.9959"
         fill="#2f2e41"
         id="circle124"
         r="30" />
      <polygon
         points="573.012,582.129 560.753,582.129 554.92,534.841 573.015,534.841 "
         fill="#a0616a"
         id="polygon126" />
      <path
         d="m 551.99554,578.62562 h 23.64387 v 14.88687 h -38.53073 v 0 a 14.88686,14.88686 0 0 1 14.88686,-14.88687 z"
         fill="#2f2e41"
         id="path128" />
      <polygon
         points="668.012,582.129 655.753,582.129 649.92,534.841 668.015,534.841 "
         fill="#a0616a"
         id="polygon130" />
      <path
         d="m 646.99554,578.62562 h 23.64387 v 14.88687 h -38.53073 v 0 a 14.88686,14.88686 0 0 1 14.88686,-14.88687 z"
         fill="#2f2e41"
         id="path132" />
      <circle
         cx="623.88977"
         cy="248.61008"
         fill="#a0616a"
         id="circle134"
         r="24.561029" />
      <path
         d="m 816.19123,504.7751 10.98975,-25.25 a 31.38253,31.38253 0 0 0 -6.94971,-35.6 31.87322,31.87322 0 0 0 -3.07031,-2.67 30.93522,30.93522 0 0 0 -18.98975,-6.57 32.179,32.179 0 0 0 -13.3999,2.98 c -0.36035,0.16 -0.71,0.33 -1.07031,0.5 -0.68994,0.33 -1.36963,0.69 -2.02979,1.06 a 31.67823,31.67823 0 0 0 -15.70019,23.88 l -4.8501,40.64 c -1.21973,3.19 -44.73975,118.39 -29.51953,206.34 a 4.46692,4.46692 0 0 0 3.81982,3.67 l 15.43018,2.1 a 4.49661,4.49661 0 0 0 5.00976,-3.53 l 25.89014,-123.41 a 3.50323,3.50323 0 0 1 6.79981,-0.23 l 36.58007,129.78 a 4.47129,4.47129 0 0 0 4.31006,3.28 5.12184,5.12184 0 0 0 0.87012,-0.08 l 18.84961,-3.63 a 4.471,4.471 0 0 0 3.63037,-4.81 c -2.77002,-30.89 -17.49023,-185.61998 -36.6001,-208.45 z"
         fill="#2f2e41"
         id="path136"
         transform="translate(-177.66231,-152.36922)" />
      <path
         d="M 706.10166,421.41909 A 10.05576,10.05576 0 0 0 716.696,432.6225 l 13.72894,32.99236 10.385,-15.3943 -14.62937,-28.97 a 10.11027,10.11027 0 0 0 -20.07892,0.16852 z"
         fill="#a0616a"
         id="path138"
         transform="translate(-177.66231,-152.36922)" />
      <path
         d="m 800.19025,537.99553 a 10.05577,10.05577 0 0 0 8.42651,-12.91316 l 28.88533,-21.03846 -17.39036,-6.51224 -24.76387,20.97687 a 10.11028,10.11028 0 0 0 4.84239,19.487 z"
         fill="#a0616a"
         id="path140"
         transform="translate(-177.66231,-152.36922)" />
      <path
         d="m 753.10188,487.61024 a 17.05692,17.05692 0 0 1 -3.29834,-0.32519 16.30539,16.30539 0 0 1 -11.94751,-9.61621 l -19.23438,-23.45313 a 4.50075,4.50075 0 0 1 1.11109,-6.68066 l 13.68432,-8.4707 a 4.50007,4.50007 0 0 1 6.21533,1.49023 l 13.5564,22.334 25.96143,-19.18658 A 9.72146,9.72146 0 0 1 790.46,459.26356 l -25.91186,23.63672 a 16.25271,16.25271 0 0 1 -11.44626,4.70996 z"
         fill="#2f2e41"
         id="path142"
         transform="translate(-177.66231,-152.36922)" />
      <path
         d="m 823.252,522.8827 c -0.0351,0 -0.0705,0 -0.10571,-10e-4 a 4.50783,4.50783 0 0 1 -3.31079,-1.57031 l -12.16626,-14.19336 a 4.49979,4.49979 0 0 1 0.92041,-6.67286 l 22.78149,-15.1875 -20.63842,-24.8125 a 9.721,9.721 0 0 1 14.8872,-12.18261 l 25.0835,24.51269 a 16.52481,16.52481 0 0 1 -3.67529,26.94043 l -20.50122,21.75391 a 4.50742,4.50742 0 0 1 -3.27491,1.41311 z"
         fill="#2f2e41"
         id="path144"
         transform="translate(-177.66231,-152.36922)" />
      <path
         d="m 795.30707,470.58358 a 4.63212,4.63212 0 0 1 -0.584,-0.0371 4.46111,4.46111 0 0 1 -3.71045,-3.06885 l -9.14234,-28.02929 a 3.08255,3.08255 0 0 1 1.594,-3.72461 l 0.29663,-0.14014 c 0.269,-0.12793 0.5354,-0.25439 0.80737,-0.37549 a 32.57412,32.57412 0 0 1 13.603,-3.023 31.327,31.327 0 0 1 17.16138,5.15674 3.13007,3.13007 0 0 1 0.90136,4.29443 L 799.08393,468.504 a 4.45513,4.45513 0 0 1 -3.77686,2.07958 z"
         fill="#e6e6e6"
         id="path146"
         transform="translate(-177.66231,-152.36922)" />
      <circle
         cx="652.10107"
         cy="219.78616"
         fill="#2f2e41"
         id="circle148"
         r="9.81668" />
      <path
         d="m 796.11115,361.36513 v 0 a 26,26 0 0 0 -26,25.99994 v 11.00006 h 13.5293 l 6.4707,-11 1.94141,11 h 41.05859 l -11,-11.00006 a 26,26 0 0 0 -26,-25.99994 z"
         fill="#2f2e41"
         id="path150"
         transform="translate(-177.66231,-152.36922)" />
      <path
         d="m 834.80883,365.43121 a 15.15,15.15 0 0 1 16.48081,-10.39558 c 6.256,1.04586 11.20228,6.07455 14.14944,11.69107 2.94716,5.61652 4.30806,11.90252 6.28935,17.92793 1.98129,6.02541 4.79124,12.08362 9.79306,15.984 5.00182,3.90038 12.67721,4.9584 17.58966,0.94607 a 20.11809,20.11809 0 0 1 -37.47706,7.18124 c -2.59206,-4.61172 -3.26121,-10.01684 -4.02988,-15.251 -0.76867,-5.23416 -1.7674,-10.6498 -4.86211,-14.94043 -3.09471,-4.29063 -8.88772,-7.09293 -13.80374,-5.13859 z"
         fill="#2f2e41"
         id="path152"
         transform="translate(-177.66231,-152.36922)" />
    </g>
    <g
       id="g395"
       transform="translate(-6.802989,2.267663)">
      <circle
         cx="431.39282"
         cy="548"
         r="46"
         fill="#6c63ff"
         id="circle98" />
      <path
         d="m 598.92043,735.14922 a 45.99375,45.99375 0 0 1 -17.07033,-71.4888 45.99715,45.99715 0 1 0 62.56892,66.464 45.96919,45.96919 0 0 1 -45.49859,5.0248 z"
         transform="translate(-177.66231,-152.36922)"
         fill="#3f3d56"
         id="path186" />
    </g>
    <g
       id="g391"
       transform="translate(119.05231)">
      <path
         d="m 281.7006,523.11883 -24.33677,-19.27776 a 17.16326,17.16326 0 0 1 -7.82343,-27.13518 l 22.09715,-28.95951 a 10.096,10.096 0 0 1 17.1296,10.28435 l -17.48384,28.6 25.694,12.18686 a 4.67363,4.67363 0 0 1 1.94814,6.71958 l -10.37175,16.41406 a 4.682,4.682 0 0 1 -3.16671,2.1111 c -0.0257,0.004 -0.0515,0.008 -0.0773,0.0123 a 4.69555,4.69555 0 0 1 -3.60909,-0.9558 z"
         transform="translate(-177.66231,-152.36922)"
         fill="#cccccc"
         id="path182" />
      <g
         id="g375">
        <polygon
           points="138.8,582.584 144.633,535.296 126.538,535.297 126.541,582.585 "
           fill="#ffb8b8"
           id="polygon160" />
        <path
           d="m 301.576,731.45065 h 38.5307 v 14.88687 H 316.46283 A 14.88686,14.88686 0 0 1 301.576,731.45066 v 0 z"
           transform="rotate(179.99738,232.01189,662.70745)"
           fill="#2f2e41"
           id="path162" />
        <polygon
           points="94.8,582.584 100.633,535.296 82.538,535.297 82.541,582.585 "
           fill="#ffb8b8"
           id="polygon164" />
        <path
           d="m 257.576,731.45065 h 38.5307 v 14.88687 H 272.46283 A 14.88686,14.88686 0 0 1 257.576,731.45066 v 0 z"
           transform="rotate(179.99738,188.01189,662.70745)"
           fill="#2f2e41"
           id="path166" />
        <path
           d="m 270.91659,720.41068 -11.975,-0.62988 a 4.6735,4.6735 0 0 1 -4.41851,-4.967 l 14.31268,-158.46594 65.911,17.78562 6.35023,-1.73241 -19.85831,140.28476 a 4.69622,4.69622 0 0 1 -4.35816,3.94458 l -12.9089,0.60147 a 4.67413,4.67413 0 0 1 -4.93149,-4.79557 l 2.339,-84.19641 a 1.55813,1.55813 0 0 0 -3.0832,-0.36007 L 275.739,716.69228 a 4.64568,4.64568 0 0 1 -4.56913,3.7255 c -0.0839,0 -0.16833,-0.002 -0.25328,-0.007 z"
           transform="translate(-177.66231,-152.36922)"
           fill="#2f2e41"
           id="path168" />
        <circle
           cx="128.74202"
           cy="249.75879"
           r="24.561029"
           fill="#ffb8b8"
           id="circle170" />
        <path
           d="m 265.51193,474.28693 2.70056,58.26748 0.97625,21.19852 a 4.64221,4.64221 0 0 0 3.07432,4.17534 l 63.336,22.94342 a 4.47742,4.47742 0 0 0 1.59954,0.28045 4.64358,4.64358 0 0 0 4.66371,-4.7881 L 339.2657,471.5969 A 36.93044,36.93044 0 0 0 308.522,435.91974 c -0.61263,-0.0935 -1.23592,-0.18695 -1.8592,-0.27006 a 36.24947,36.24947 0 0 0 -29.165,9.44122 37.23612,37.23612 0 0 0 -11.9859,29.196 z"
           transform="translate(-177.66231,-152.36922)"
           fill="#cccccc"
           id="path172" />
        <path
           d="m 365.85452,569.24512 a 10.06355,10.06355 0 0 1 -5.36877,-15.22659 l -21.478,-28.56 18.53424,-1.14707 17.55439,27.29693 a 10.111,10.111 0 0 1 -9.24184,17.63673 z"
           transform="translate(-177.66231,-152.36922)"
           fill="#ffb8b8"
           id="path174" />
        <path
           d="m 350.75332,548.85022 a 4.64437,4.64437 0 0 1 -2.54106,-2.51848 L 315.854,469.2374 a 12.4634,12.4634 0 1 1 22.98438,-9.64693 l 32.3582,77.09534 a 4.679,4.679 0 0 1 -2.50048,6.11822 l -14.36542,6.029 a 4.64165,4.64165 0 0 1 -3.57741,0.0172 z"
           transform="translate(-177.66231,-152.36922)"
           fill="#cccccc"
           id="path176" />
        <path
           d="M 298.50776,546.13086 329.587,486.62205 a 4.87826,4.87826 0 0 1 6.57494,-2.06344 l 45.11152,23.5601 a 4.87826,4.87826 0 0 1 2.06343,6.57494 l -31.07927,59.50881 a 4.87827,4.87827 0 0 1 -6.57494,2.06344 L 300.5712,552.7058 a 4.87826,4.87826 0 0 1 -2.06344,-6.57494 z"
           transform="translate(-177.66231,-152.36922)"
           fill="#3f3d56"
           id="path178" />
        <path
           d="m 319.35062,518.94278 a 10.06358,10.06358 0 0 0 -15.517,-4.46026 l -29.77845,-19.75406 -0.0506,18.56963 28.28584,15.91191 a 10.111,10.111 0 0 0 17.06022,-10.26718 z"
           transform="translate(-177.66231,-152.36922)"
           fill="#ffb8b8"
           id="path180" />
        <path
           d="m 287.84537,418.57447 a 2.13479,2.13479 0 0 1 1.85636,-2.81905 4.93046,4.93046 0 0 1 3.4761,1.71495 13.8334,13.8334 0 0 0 3.07115,2.63711 c 1.18812,0.59889 2.79953,0.51354 3.47685,-0.62824 0.63605,-1.07221 0.20023,-2.508 -0.18482,-3.75347 a 36.90711,36.90711 0 0 1 -1.62991,-9.77 c -0.11092,-3.70032 0.41115,-7.562 2.45972,-10.44807 2.64387,-3.72475 7.37142,-5.13883 11.84544,-5.0363 4.47402,0.10253 8.87547,1.48362 13.30713,2.35665 1.52992,0.30139 3.32826,0.4555 4.35153,-0.73025 1.08805,-1.26082 0.68844,-3.3014 0.22563,-5.00376 -1.20094,-4.41743 -2.475,-8.98461 -5.26525,-12.55224 a 18.89839,18.89839 0 0 0 -12.06081,-6.79014 28.93848,28.93848 0 0 0 -13.46236,1.52838 36.09628,36.09628 0 0 0 -17.68285,12.3186 29.23592,29.23592 0 0 0 -5.57809,21.60019 26.66712,26.66712 0 0 0 9.88579,16.85462 z"
           transform="translate(-177.66231,-152.36922)"
           fill="#2f2e41"
           id="path184" />
      </g>
    </g>
    <rect
       style="fill:none;stroke-width:0.905;stroke-dasharray:none"
       id="rect257"
       width="605.46606"
       height="507.95651"
       x="137.1936"
       y="88.43885" />
    <g
       id="g361"
       transform="translate(6.8029889,29.479619)">
      <g
         id="g401"
         transform="translate(-17.007472,-4.535326)">
        <path
           d="m 604.12763,220.37264 c -71.89185,0.50782 -130.75611,58.92987 -131.77735,130.81635 -0.009,0.66369 -0.0138,5.33048 -0.0132,11.43422 a 33.74778,33.74778 0 0 0 33.74387,33.746 h 7e-5 a 33.76855,33.76855 0 0 0 33.76114,-33.79775 c -0.003,-4.15211 -0.006,-7.02584 -0.006,-7.20227 a 64.00037,64.00037 0 1 1 98.52027,53.8794 l 0.0117,0.0142 c 0,0 -48.02832,30.91956 -62.67089,73.33545 l 0.0124,0.003 a 94.00389,94.00389 0 0 0 -3.87354,26.76794 c 0,3.72538 0.21916,36.32138 0.64261,62.77767 a 34.78649,34.78649 0 0 0 34.79009,34.22233 h 7e-5 a 34.79588,34.79588 0 0 0 34.79384,-35.01061 c -0.14706,-24.22912 -0.22661,-52.44168 -0.22661,-54.48939 0,-26.04473 25.12525,-51.99475 45.76367,-68.91741 23.76587,-19.48694 40.86792,-46.04291 47.73706,-75.99909 a 86.7618,86.7618 0 0 0 2.49927,-18.8335 132.75,132.75 0 0 0 -133.70898,-132.74656 z"
           fill="#6c63ff"
           id="path120"
           transform="translate(-177.66231,-152.36922)" />
        <path
           d="m 515.60883,380.40755 v 0 a 33.748,33.748 0 0 1 -33.74414,-33.746 c -4.9e-4,-6.10376 0.004,-10.77051 0.0132,-11.4342 a 131.50724,131.50724 0 0 1 15.35889,-59.90875 131.80321,131.80321 0 0 0 -25.35889,75.90875 c -0.009,0.66369 -0.0137,5.33044 -0.0132,11.4342 a 33.748,33.748 0 0 0 33.74414,33.746 v 0 a 33.77281,33.77281 0 0 0 32.48779,-24.59055 33.62247,33.62247 0 0 1 -22.48779,8.59055 z"
           transform="translate(-177.66231,-152.36922)"
           fill="#3f3d56"
           id="path154" />
        <path
           d="m 606.415,291.47848 a 64.00385,64.00385 0 0 1 55.65918,89.413 63.9972,63.9972 0 1 0 -107.42578,-66.98523 63.87073,63.87073 0 0 1 51.7666,-22.42777 z"
           fill="#3f3d56"
           id="path156"
           transform="translate(-177.66231,-152.36922)" />
        <path
           d="m 616.79682,590.40755 v 0 a 34.78682,34.78682 0 0 1 -34.79,-34.22235 c -0.42334,-26.45629 -0.64258,-59.0523 -0.64258,-62.77765 a 94.00389,94.00389 0 0 1 3.87354,-26.76794 l -0.0122,-0.003 a 95.069,95.069 0 0 1 5.49414,-12.70087 110.04745,110.04745 0 0 0 -15.49414,28.70087 l 0.0122,0.003 a 94.00389,94.00389 0 0 0 -3.87354,26.76794 c 0,3.72535 0.21924,36.32136 0.64258,62.77765 a 34.78682,34.78682 0 0 0 34.79,34.22235 v 0 a 34.80287,34.80287 0 0 0 33.40185,-25.04846 34.66005,34.66005 0 0 1 -23.40185,9.04846 z"
           transform="translate(-177.66231,-152.36922)"
           fill="#3f3d56"
           id="path158" />
      </g>
    </g>
  </g>
</svg>
