<svg xmlns="http://www.w3.org/2000/svg" xmlns:xlink="http://www.w3.org/1999/xlink" viewBox="0 0 24 24" fill="#535353">
  <path d="M12 1C8.6761905 1 6 3.6761905 6 7L6 8C4.9069372 8 4 8.9069372 4 10L4 20C4 21.093063 4.9069372 22 6 22L18 22C19.093063 22 20 21.093063 20 20L20 10C20 8.9069372 19.093063 8 18 8L18 7C18 3.6761905 15.32381 1 12 1 z M 12 3C14.27619 3 16 4.7238095 16 7L16 8L8 8L8 7C8 4.7238095 9.7238095 3 12 3 z M 6 10L18 10L18 20L6 20L6 10 z M 12 13C10.9 13 10 13.9 10 15C10 16.1 10.9 17 12 17C13.1 17 14 16.1 14 15C14 13.9 13.1 13 12 13 z" fill="#535353" />
</svg>