<svg xmlns="http://www.w3.org/2000/svg" xmlns:xlink="http://www.w3.org/1999/xlink" viewBox="0 0 30 30" fill="#535353">
  <path d="M7 2C5.895 2 5 2.895 5 4L5 26C5 27.105 5.895 28 7 28L18.111328 28C19.374131 29.234972 21.098244 30 23 30C26.86 30 30 26.86 30 23C30 22.186 29.859938 21.384906 29.585938 20.628906C30.170938 19.845906 30.106531 18.730531 29.394531 18.019531L27.980469 16.605469C27.589469 16.214469 27.078406 16.019531 26.566406 16.019531C26.311406 16.019531 26.058359 16.067063 25.818359 16.164062C25.64563 15.789179 25.353994 15.487807 25 15.28125L25 9.5C25 9.235 24.895031 8.9809688 24.707031 8.7929688L18.207031 2.2929688C18.019031 2.1049688 17.765 2 17.5 2L7 2 z M 17 3.9042969L23.095703 10L18 10C17.448 10 17 9.552 17 9L17 3.9042969 z M 9 13C9.552 13 10 13.448 10 14C10 14.552 9.552 15 9 15C8.448 15 8 14.552 8 14C8 13.448 8.448 13 9 13 z M 13 13L21 13C21.552 13 22 13.448 22 14C22 14.552 21.552 15 21 15L13 15C12.448 15 12 14.552 12 14C12 13.448 12.448 13 13 13 z M 9 17C9.552 17 10 17.448 10 18C10 18.552 9.552 19 9 19C8.448 19 8 18.552 8 18C8 17.448 8.448 17 9 17 z M 13 17L19.425781 17C18.572518 17.511053 17.84397 18.193607 17.279297 19L13 19C12.448 19 12 18.552 12 18C12 17.448 12.448 17 13 17 z M 22 17L24 17L24 18.101562C24.267602 18.15609 24.521691 18.244104 24.771484 18.339844C24.847392 18.369729 24.925673 18.394778 25 18.427734C25.262592 18.543625 25.517066 18.67474 25.753906 18.832031L26.566406 18.019531L27.980469 19.433594L27.167969 20.246094C27.691969 21.036094 28 21.981 28 23C28 25.761 25.761 28 23 28C22.827437 28 22.656346 27.991682 22.488281 27.974609C19.967303 27.718514 18 25.588438 18 23C18 22.285441 18.165474 21.614711 18.435547 21C18.698797 20.4 19.073328 19.865391 19.537109 19.417969C19.691703 19.268828 19.856047 19.12875 20.029297 19C20.600866 18.574836 21.255911 18.257448 21.978516 18.107422C21.986516 18.106422 21.993 18.102563 22 18.101562L22 18L22 17 z M 24.5 20.441406 A 1.0001 1.0001 0 0 0 23.722656 20.767578L22.271484 22.316406 A 1.0001 1.0001 0 1 0 23.728516 23.683594L25.181641 22.136719 A 1.0001 1.0001 0 0 0 24.5 20.441406 z M 9 21C9.552 21 10 21.448 10 22C10 22.552 9.552 23 9 23C8.448 23 8 22.552 8 22C8 21.448 8.448 21 9 21 z M 13 21L16.294922 21C16.103652 21.637111 16 22.309225 16 23L13 23C12.448 23 12 22.552 12 22C12 21.448 12.448 21 13 21 z" fill="#535353" />
</svg>