<?xml version="1.0" encoding="UTF-8" standalone="no"?>
<svg
   data-name="Layer 1"
   width="844.67538"
   height="595.26155"
   viewBox="0 0 844.67538 595.26155"
   version="1.1"
   id="svg846"
   sodipodi:docname="texture.svg"
   inkscape:version="1.2.1 (9c6d41e410, 2022-07-14)"
   xmlns:inkscape="http://www.inkscape.org/namespaces/inkscape"
   xmlns:sodipodi="http://sodipodi.sourceforge.net/DTD/sodipodi-0.dtd"
   xmlns="http://www.w3.org/2000/svg"
   xmlns:svg="http://www.w3.org/2000/svg">
  <defs
     id="defs850" />
  <sodipodi:namedview
     id="namedview848"
     pagecolor="#ffffff"
     bordercolor="#000000"
     borderopacity="0.25"
     inkscape:showpageshadow="2"
     inkscape:pageopacity="0.0"
     inkscape:pagecheckerboard="0"
     inkscape:deskcolor="#d1d1d1"
     showgrid="false"
     inkscape:zoom="0.88196527"
     inkscape:cx="421.78532"
     inkscape:cy="212.02649"
     inkscape:window-width="1366"
     inkscape:window-height="705"
     inkscape:window-x="-8"
     inkscape:window-y="-8"
     inkscape:window-maximized="1"
     inkscape:current-layer="svg846" />
  <path
     d="m 693.72731,546.06239 c 25.7345,-7.72868 53.09381,-15.78786 73.50313,-34.161 18.23763,-16.41813 30.55024,-41.48912 22.99475,-66.1115 -7.54,-24.57187 -30.12421,-40.95629 -53.44165,-49.10532 -13.225,-4.62188 -27.06087,-7.18608 -40.89147,-9.20037 -15.03485,-2.18967 -30.13615,-3.98373 -45.23026,-5.71012 q -91.67724,-10.48563 -184.04386,-12.811 c -30.38456,-0.76525 -60.76358,-0.74682 -91.15243,-0.3057 -27.13937,0.394 -55.72215,0.38417 -80.899,-11.15051 -19.57846,-8.96979 -37.348,-25.28881 -42.8033,-46.73352 -6.29728,-24.75467 5.318,-49.96382 21.97993,-67.892 8.78265,-9.45011 19.04731,-17.40385 29.63621,-24.71743 11.4874,-7.93416 23.37539,-15.30643 35.52084,-22.18813 a 494.63414,494.63414 0 0 1 74.7667,-34.4685 c 12.74555,-4.63445 25.68047,-8.63281 38.72759,-12.32143 11.017,-3.11469 22.06832,-6.23382 32.71588,-10.47748 20.58349,-8.20371 40.161,-22.09985 45.39464,-44.88142 4.96024,-21.59145 -3.40305,-45.03067 -18.065,-61.07057 C 495.47719,14.19939 469.90052,6.0645801 445.37994,4.7483901 417.85152,3.2707401 390.95748,10.16039 365.08316,18.90424 c -27.59673,9.326 -54.59854,20.04924 -82.77827,27.60322 a 556.95783,556.95783 0 0 1 -85.19574,15.83655 c -14.08227,1.49951 -28.59019,3.19273 -42.75626,2.04475 -11.87246,-0.96211 -23.68426,-4.45375 -32.43408,-12.87964 -7.50252,-7.22477 -11.97184,-17.154 -10.4353,-27.63238 0.27909,-1.90318 3.17022,-1.09407 2.89284,0.79752 -1.8704,12.75513 6.79991,24.50863 17.48415,30.5293 12.34817,6.95832 27.37408,6.9678 41.1218,6.172 a 537.82528,537.82528 0 0 0 88.51452,-12.79561 c 28.59252,-6.53059 56.16382,-15.86633 83.70391,-25.83908 26.15594,-9.47153 52.89665,-18.7157899 80.84009,-20.7672899 24.24611,-1.78006996 49.75165,1.75222 70.87426,14.4231299 18.56387,11.136 32.21482,29.70722 36.56451,51.01813 4.25044,20.82462 -1.63632,41.785 -17.4,56.31714 -16.32147,15.04633 -38.7007,21.47909 -59.55655,27.40368 -26.45223,7.51437 -52.33726,16.29809 -77.39248,27.7031 a 485.82354,485.82354 0 0 0 -72.8001,40.92805 c -22.24625,15.20228 -44.2007,34.33058 -51.23658,61.45126 -3.27739,12.63313 -2.67227,26.03212 2.8116,37.96461 4.87605,10.60993 12.90656,19.53469 22.26169,26.41853 22.32074,16.42443 50.45266,19.79665 77.41421,20.13212 30.28143,0.37678 60.56382,-0.64518 90.85508,-0.148 q 92.5988,1.51977 184.81863,11.27265 23.108,2.44594 46.15759,5.40711 c 13.82158,1.776 27.68967,3.54058 41.27849,6.69464 24.16222,5.60822 47.67389,16.39167 62.69178,36.878 a 61.31938,61.31938 0 0 1 11.94709,30.44593 c 1.05134,11.52384 -1.76985,23.0693 -6.98016,33.32083 -11.53233,22.69042 -33.13363,37.12286 -56.07337,46.60471 -12.28683,5.0786 -25.03167,8.926 -37.7516,12.74609 -1.853,0.55651 -2.64487,-2.338 -0.79752,-2.89283 z"
     fill="#f2f2f2"
     id="path758" />
  <circle
     cx="125.89281"
     cy="69.5"
     r="24"
     fill="#f2f2f2"
     id="circle760" />
  <circle
     cx="292.39281"
     cy="115"
     r="24"
     fill="#f2f2f2"
     id="circle762" />
  <circle
     cx="433.39281"
     cy="24"
     r="24"
     fill="#f2f2f2"
     id="circle764" />
  <circle
     cx="521.39281"
     cy="126"
     r="24"
     fill="#f2f2f2"
     id="circle766" />
  <circle
     cx="402.39281"
     cy="244"
     r="24"
     fill="#f2f2f2"
     id="circle768" />
  <circle
     cx="251.39281"
     cy="301"
     r="24"
     fill="#f2f2f2"
     id="circle770" />
  <circle
     cx="411.39281"
     cy="390"
     r="24"
     fill="#f2f2f2"
     id="circle772" />
  <circle
     cx="583.39281"
     cy="440"
     r="24"
     fill="#f2f2f2"
     id="circle774" />
  <circle
     cx="784.39281"
     cy="429"
     r="24"
     fill="#f2f2f2"
     id="circle776" />
</svg>
