<?xml version="1.0" standalone="no"?>
<!DOCTYPE svg PUBLIC "-//W3C//DTD SVG 20010904//EN"
 "http://www.w3.org/TR/2001/REC-SVG-20010904/DTD/svg10.dtd">
<svg version="1.0" xmlns="http://www.w3.org/2000/svg"
 width="605.000000pt" height="605.000000pt" viewBox="0 0 605.000000 605.000000"
 preserveAspectRatio="xMidYMid meet">
<metadata>
Created by potrace 1.14, written by Peter Selinger 2001-2017
</metadata>
<g transform="translate(0.000000,605.000000) scale(0.100000,-0.100000)"
fill="#000000" stroke="none">
<path d="M2669 5519 c-37 -4 -93 -13 -125 -20 -33 -7 -65 -14 -73 -15 -79 -15
-347 -130 -381 -164 -3 -3 -27 -21 -55 -40 -145 -101 -306 -275 -392 -425 -64
-111 -134 -292 -148 -383 -3 -21 -8 -49 -10 -62 -20 -99 -23 -334 -5 -399 44
-163 218 -271 386 -240 69 13 131 46 181 96 75 77 93 125 99 273 5 140 25 253
45 266 5 3 9 11 9 19 0 28 74 138 133 199 205 208 510 248 769 102 258 -146
378 -464 284 -755 -15 -46 -40 -104 -56 -128 -17 -24 -30 -46 -30 -49 0 -10
-115 -120 -145 -140 -16 -10 -34 -22 -40 -27 -5 -4 -33 -24 -61 -45 -114 -83
-274 -237 -351 -336 -21 -28 -49 -61 -62 -75 -12 -14 -30 -39 -38 -56 -9 -16
-21 -37 -27 -45 -29 -36 -79 -167 -96 -252 -17 -83 -18 -134 -15 -473 1 -209
6 -393 10 -410 23 -90 97 -185 176 -226 187 -96 397 -23 488 170 l26 56 1 350
c1 306 3 356 18 400 10 28 19 55 20 60 4 15 40 89 47 95 3 3 12 16 19 30 39
75 222 275 335 365 52 42 162 149 205 200 37 43 110 143 110 150 0 3 10 20 22
38 13 18 24 33 24 35 1 2 13 0 27 -3 16 -5 30 -18 38 -38 39 -98 38 -90 13
-120 -14 -17 -21 -34 -17 -44 4 -10 45 -62 91 -118 46 -55 100 -123 120 -151
25 -36 47 -55 76 -66 45 -17 112 -16 129 1 26 26 38 12 32 -41 -11 -107 -18
-136 -61 -265 -25 -72 -47 -142 -49 -155 -3 -12 -9 -34 -14 -48 -9 -22 -26
-82 -38 -130 -6 -24 -9 -33 -18 -60 -4 -14 -9 -32 -10 -40 0 -8 -6 -33 -13
-55 -6 -22 -13 -51 -16 -65 -2 -14 -16 -79 -30 -145 -14 -66 -28 -136 -31
-155 -3 -19 -7 -46 -10 -60 -2 -14 -7 -45 -10 -70 -12 -85 -17 -115 -23 -124
-3 -5 0 -6 6 -2 9 5 9 1 3 -16 -31 -81 -34 -611 -5 -763 3 -16 7 -36 8 -44 2
-8 12 -22 23 -31 15 -12 23 -34 28 -76 4 -32 8 -69 10 -81 3 -21 0 -23 -48
-24 -68 -1 -83 -4 -113 -24 -29 -19 -64 -72 -64 -97 0 -19 -7 -20 -95 -18 -27
0 -54 0 -60 0 -5 0 -59 0 -120 0 -60 0 -119 0 -130 0 -11 0 -83 0 -160 0 -77
0 -144 1 -150 1 -5 0 -56 -2 -113 -3 -56 -2 -102 -1 -102 2 0 3 15 14 34 24
88 47 177 165 207 273 47 169 3 334 -120 454 -249 243 -659 135 -761 -200 -22
-74 -20 -206 4 -276 35 -100 102 -185 191 -242 28 -18 43 -33 35 -34 -83 -4
-1020 0 -1028 5 -6 3 -13 3 -15 -1 -4 -6 -92 -8 -164 -4 -6 1 -14 14 -18 30
-8 38 -60 89 -100 99 -16 5 -51 8 -77 7 l-48 -1 7 51 c3 27 7 60 7 71 1 12 7
28 13 36 13 15 19 43 38 183 1 11 5 38 8 60 4 22 9 60 12 85 3 25 8 56 10 70
2 14 7 45 10 70 3 25 8 56 11 70 2 14 6 41 9 60 3 34 19 152 32 235 3 22 7 50
8 62 2 13 6 40 9 60 3 21 8 56 11 78 3 23 7 50 9 61 2 12 7 45 11 75 12 90 13
103 20 139 4 28 22 85 30 98 1 1 16 -3 34 -9 41 -14 53 -4 96 80 32 65 33 66
45 40 23 -50 82 -68 136 -43 56 27 71 101 31 151 -44 54 -69 103 -61 121 4 9
8 24 10 32 2 8 23 52 48 98 24 45 41 82 38 82 -4 0 -2 4 3 8 6 4 16 19 24 34
22 43 4 68 -80 111 -175 90 -224 117 -225 124 -1 10 -18 52 -85 208 -48 113
-63 142 -96 183 -79 99 -131 136 -228 164 -97 28 -198 11 -293 -49 -28 -18
-52 -30 -52 -28 0 32 -255 -282 -296 -365 -36 -70 2 -177 75 -216 20 -11 45
-27 56 -36 72 -60 70 -58 72 -116 1 -32 5 -124 9 -207 4 -82 6 -157 6 -165 -1
-24 -10 -115 -12 -115 -1 0 -3 -25 -5 -55 -2 -30 -6 -80 -10 -110 -3 -30 -7
-80 -10 -110 -2 -30 -6 -80 -9 -110 -3 -30 -8 -82 -11 -115 -10 -114 -16 -180
-21 -230 -5 -53 -10 -107 -19 -220 -4 -38 -8 -86 -10 -105 -2 -19 -6 -73 -10
-120 -3 -47 -8 -96 -10 -110 -3 -14 -7 -71 -11 -126 l-6 -102 28 -14 c25 -12
29 -19 30 -58 0 -53 -5 -72 -17 -64 -10 6 -10 5 -12 -80 l-2 -59 -308 0 c-222
0 -307 -3 -307 -11 0 -8 360 -12 1383 -14 760 -1 1427 -2 1482 -3 55 0 794 1
1643 3 1156 2 1542 6 1542 14 0 9 -94 12 -357 11 l-358 0 -3 69 c-2 43 -8 71
-16 76 -8 5 -12 27 -11 65 1 54 3 58 27 61 24 3 54 44 44 60 -2 4 -7 43 -10
87 -4 44 -9 96 -11 115 -2 19 -6 63 -10 98 -3 34 -7 77 -10 95 -2 18 -7 59
-10 91 -3 33 -7 73 -10 90 -10 80 -16 125 -20 171 -3 28 -8 65 -10 83 -9 63
-14 98 -20 147 -7 55 -14 106 -21 145 -2 14 -6 45 -9 70 -3 25 -8 56 -11 70
-3 14 -8 39 -10 55 -5 38 -12 83 -19 115 -3 14 -7 39 -10 55 -4 31 -20 113
-30 155 -4 14 -8 37 -11 51 -3 15 -15 65 -28 112 l-23 86 147 149 c80 81 150
157 154 168 15 38 17 70 6 111 -10 34 -39 67 -159 185 -81 79 -166 158 -189
176 -23 19 -40 37 -37 42 5 9 -20 31 -55 47 -73 34 -167 37 -243 8 -26 -10
-47 -21 -47 -25 0 -13 -138 -147 -192 -186 -29 -21 -62 -47 -73 -57 -24 -22
-19 -28 -119 140 -36 59 -66 94 -77 87 -5 -3 -34 46 -64 108 -31 62 -65 121
-76 130 -15 13 -18 22 -11 35 8 15 35 123 61 238 8 36 7 168 -3 245 -29 244
-126 477 -285 680 -137 176 -405 364 -606 424 -5 2 -18 6 -27 9 -130 49 -361
73 -529 56z m2475 -2370 c14 -21 13 -24 -25 -51 -23 -16 -42 -28 -44 -26 -6 6
37 98 46 98 4 0 15 -10 23 -21z m-428 -1037 c11 -8 32 -55 37 -87 2 -11 7 -27
10 -35 4 -8 11 -33 16 -55 12 -52 143 -516 178 -630 8 -27 17 -58 19 -68 4
-23 94 -347 102 -367 3 -8 6 -17 7 -20 1 -3 6 -20 10 -38 8 -33 37 -58 55 -47
12 7 18 -8 23 -56 l4 -36 -60 -2 c-74 -1 -127 -29 -152 -80 -10 -20 -18 -42
-16 -49 1 -6 -4 -12 -11 -13 -18 -1 -496 -1 -530 0 -26 1 -26 3 -27 66 0 65
-6 89 -19 81 -4 -2 -7 27 -7 66 0 71 1 73 43 95 4 1 20 66 28 111 5 28 10 50
29 137 9 38 17 83 20 100 2 16 4 30 5 30 2 0 3 6 15 60 8 39 14 70 19 98 2 12
14 65 26 117 12 52 24 110 26 129 3 19 7 37 9 41 3 4 7 25 11 45 3 21 8 47 10
59 3 11 8 39 13 62 4 22 22 61 38 85 37 54 53 109 49 167 -3 42 0 48 20 34z
m-3663 -453 c-2 -58 -13 -494 -18 -682 l-3 -148 24 -11 c28 -13 26 -7 26 -78
0 -76 -1 -82 -11 -76 -13 8 -17 -11 -16 -74 1 -30 -3 -58 -8 -61 -19 -13 -46
4 -52 32 -9 38 -57 86 -99 97 -18 5 -53 9 -79 7 l-46 -2 5 51 c3 28 11 70 19
93 8 23 17 52 19 65 9 41 14 61 46 183 17 66 33 127 35 135 2 8 15 62 30 120
15 58 29 114 31 125 2 11 11 47 20 80 9 33 18 67 19 75 2 8 4 16 5 18 3 2 3 2
14 52 11 45 15 52 29 47 7 -2 11 -22 10 -48z"/>
<path d="M5269 4411 c-20 -11 -43 -31 -53 -45 -13 -20 -21 -24 -39 -18 -44 16
-92 -2 -120 -45 -8 -13 -25 -8 -140 38 -127 52 -265 7 -333 -108 -24 -42 -29
-61 -32 -144 l-4 -96 25 2 c31 4 43 -9 45 -48 5 -85 87 -186 171 -211 58 -17
154 -13 220 9 142 47 233 223 187 363 l-17 50 31 30 c16 17 30 37 30 45 0 14
15 16 77 8 19 -2 73 -64 80 -91 3 -14 8 -29 12 -35 6 -11 7 -18 15 -75 19
-137 60 -204 142 -236 107 -41 233 19 264 126 8 27 8 27 -29 17 -102 -28 -192
45 -240 194 -6 20 -13 45 -15 55 -7 34 -39 108 -63 144 -51 78 -145 108 -214
71z"/>
<path d="M1118 4304 c-2 -1 -19 -4 -38 -7 -94 -12 -208 -95 -251 -184 -29 -60
-34 -170 -10 -223 24 -55 70 -110 86 -104 8 3 30 -6 49 -21 124 -94 298 -54
372 87 19 36 28 152 14 178 -5 8 -4 22 1 32 7 12 5 35 -5 69 -24 80 -63 133
-111 153 -21 9 -103 24 -107 20z"/>
</g>
</svg>
